<svg width="2467" height="501" viewBox="0 0 2467 501" fill="none" xmlns="http://www.w3.org/2000/svg">
<path fill-rule="evenodd" clip-rule="evenodd" d="M180.058 0.5C80.6145 0.5 0 81.1145 0 180.558V320.442C0 419.885 80.6145 500.5 180.058 500.5H319.942C419.385 500.5 500 419.885 500 320.442V180.558C500 81.1145 419.385 0.5 319.942 0.5H180.058ZM176.933 325.421V88.9853L235.118 122.189V290.572L323.067 343.393V412.015L235.118 358.906V358.912L176.933 325.421ZM264.869 276.144V207.81L322.61 172.853V241.475L264.869 276.144Z" fill="#1A91FF"/>
<path d="M564.963 368.5V132.119H608.187V227.685L695.647 132.119H749.002L661.879 225.996L751.366 368.5H698.349L630.812 259.09L608.187 283.741V368.5H564.963ZM826.153 372.552C811.745 372.552 799.926 370.301 790.696 365.799C781.466 361.071 774.599 354.88 770.097 347.226C765.594 339.572 763.343 331.129 763.343 321.899C763.343 306.366 769.421 293.759 781.578 284.078C793.735 274.398 811.97 269.558 836.283 269.558H878.832V265.506C878.832 254.024 875.568 245.582 869.039 240.179C862.51 234.776 854.406 232.075 844.726 232.075C835.946 232.075 828.291 234.213 821.763 238.491C815.234 242.543 811.182 248.621 809.606 256.726H767.395C768.521 244.569 772.573 233.988 779.552 224.983C786.756 215.978 795.986 209.112 807.242 204.384C818.499 199.432 831.106 196.955 845.063 196.955C868.926 196.955 887.724 202.921 901.457 214.853C915.19 226.784 922.056 243.668 922.056 265.506V368.5H885.248L881.196 341.485C876.243 350.49 869.264 357.919 860.259 363.772C851.479 369.626 840.111 372.552 826.153 372.552ZM835.946 338.784C848.328 338.784 857.895 334.731 864.649 326.627C871.628 318.522 876.018 308.504 877.819 296.573H841.011C829.53 296.573 821.313 298.711 816.36 302.989C811.407 307.041 808.931 312.106 808.931 318.185C808.931 324.713 811.407 329.779 816.36 333.381C821.313 336.983 827.841 338.784 835.946 338.784ZM1032.53 372.552C1017.67 372.552 1004.61 370.188 993.358 365.461C982.102 360.508 973.097 353.754 966.343 345.2C959.589 336.645 955.537 326.739 954.186 315.483H997.748C999.098 322.012 1002.7 327.64 1008.55 332.368C1014.63 336.87 1022.4 339.121 1031.85 339.121C1041.31 339.121 1048.18 337.208 1052.45 333.381C1056.96 329.553 1059.21 325.164 1059.21 320.211C1059.21 313.007 1056.05 308.167 1049.75 305.69C1043.45 302.989 1034.67 300.4 1023.41 297.923C1016.21 296.348 1008.89 294.434 1001.46 292.183C994.033 289.932 987.167 287.118 980.863 283.741C974.785 280.139 969.832 275.636 966.005 270.233C962.178 264.605 960.265 257.739 960.265 249.634C960.265 234.776 966.118 222.282 977.824 212.151C989.756 202.02 1006.42 196.955 1027.8 196.955C1047.61 196.955 1063.37 201.57 1075.08 210.8C1087.01 220.03 1094.1 232.75 1096.35 248.959H1055.49C1053.02 236.577 1043.67 230.386 1027.46 230.386C1019.36 230.386 1013.06 231.962 1008.55 235.114C1004.28 238.266 1002.14 242.205 1002.14 246.933C1002.14 251.886 1005.4 255.825 1011.93 258.752C1018.46 261.678 1027.13 264.38 1037.93 266.856C1049.64 269.558 1060.33 272.597 1070.01 275.974C1079.92 279.126 1087.8 283.966 1093.65 290.494C1099.5 296.798 1102.43 305.915 1102.43 317.847C1102.66 328.203 1099.95 337.545 1094.33 345.875C1088.7 354.205 1080.59 360.733 1070.01 365.461C1059.43 370.188 1046.94 372.552 1032.53 372.552ZM1141.73 368.5V132.119H1184.96V334.731H1289.64V368.5H1141.73ZM1384.46 372.552C1370.05 372.552 1358.23 370.301 1349 365.799C1339.77 361.071 1332.9 354.88 1328.4 347.226C1323.9 339.572 1321.65 331.129 1321.65 321.899C1321.65 306.366 1327.73 293.759 1339.88 284.078C1352.04 274.398 1370.27 269.558 1394.59 269.558H1437.14V265.506C1437.14 254.024 1433.87 245.582 1427.34 240.179C1420.81 234.776 1412.71 232.075 1403.03 232.075C1394.25 232.075 1386.6 234.213 1380.07 238.491C1373.54 242.543 1369.49 248.621 1367.91 256.726H1325.7C1326.83 244.569 1330.88 233.988 1337.86 224.983C1345.06 215.978 1354.29 209.112 1365.55 204.384C1376.8 199.432 1389.41 196.955 1403.37 196.955C1427.23 196.955 1446.03 202.921 1459.76 214.853C1473.49 226.784 1480.36 243.668 1480.36 265.506V368.5H1443.55L1439.5 341.485C1434.55 350.49 1427.57 357.919 1418.56 363.772C1409.78 369.626 1398.41 372.552 1384.46 372.552ZM1394.25 338.784C1406.63 338.784 1416.2 334.731 1422.95 326.627C1429.93 318.522 1434.32 308.504 1436.12 296.573H1399.32C1387.83 296.573 1379.62 298.711 1374.66 302.989C1369.71 307.041 1367.23 312.106 1367.23 318.185C1367.23 324.713 1369.71 329.779 1374.66 333.381C1379.62 336.983 1386.15 338.784 1394.25 338.784ZM1584.42 372.552C1563.48 372.552 1547.27 366.024 1535.79 352.966C1524.53 339.909 1518.91 320.774 1518.91 295.56V201.007H1561.79V291.507C1561.79 305.915 1564.72 316.946 1570.57 324.601C1576.43 332.255 1585.66 336.082 1598.26 336.082C1610.19 336.082 1619.99 331.805 1627.64 323.25C1635.52 314.695 1639.46 302.764 1639.46 287.455V201.007H1682.68V368.5H1644.53L1641.15 340.134C1635.97 350.04 1628.43 357.919 1618.52 363.772C1608.84 369.626 1597.47 372.552 1584.42 372.552ZM1727.06 368.5V201.007H1765.21L1768.59 229.373C1773.77 219.468 1781.2 211.588 1790.88 205.735C1800.78 199.882 1812.38 196.955 1825.66 196.955C1846.37 196.955 1862.47 203.484 1873.95 216.541C1885.43 229.598 1891.17 248.734 1891.17 273.948V368.5H1847.95V278C1847.95 263.592 1845.02 252.561 1839.17 244.907C1833.31 237.252 1824.2 233.425 1811.82 233.425C1799.66 233.425 1789.64 237.703 1781.76 246.257C1774.11 254.812 1770.28 266.744 1770.28 282.052V368.5H1727.06ZM2009.5 372.552C1993.74 372.552 1979.67 368.725 1967.29 361.071C1954.9 353.417 1945.11 342.948 1937.91 329.666C1930.7 316.384 1927.1 301.3 1927.1 284.416C1927.1 267.532 1930.7 252.561 1937.91 239.504C1945.11 226.221 1954.9 215.866 1967.29 208.437C1979.67 200.782 1993.74 196.955 2009.5 196.955C2022.1 196.955 2033.13 199.319 2042.59 204.047C2052.05 208.774 2059.7 215.415 2065.55 223.97V125.366H2108.78V368.5H2070.28L2065.55 344.524C2060.15 351.953 2052.95 358.482 2043.94 364.11C2035.16 369.738 2023.68 372.552 2009.5 372.552ZM2018.61 334.731C2032.57 334.731 2043.94 330.116 2052.72 320.886C2061.73 311.431 2066.23 299.387 2066.23 284.754C2066.23 270.121 2061.73 258.189 2052.72 248.959C2043.94 239.504 2032.57 234.776 2018.61 234.776C2004.88 234.776 1993.51 239.391 1984.51 248.621C1975.5 257.851 1971 269.783 1971 284.416C1971 299.049 1975.5 311.093 1984.51 320.548C1993.51 330.004 2004.88 334.731 2018.61 334.731ZM2152.79 368.5V201.007H2191.29L2195.34 232.412C2201.42 221.606 2209.64 213.052 2219.99 206.748C2230.57 200.219 2242.95 196.955 2257.14 196.955V242.543H2244.98C2235.53 242.543 2227.08 244.006 2219.65 246.933C2212.22 249.859 2206.37 254.925 2202.09 262.129C2198.04 269.333 2196.02 279.351 2196.02 292.183V368.5H2152.79ZM2307.62 442.791L2346.45 357.356H2336.32L2271.15 201.007H2318.08L2365.02 318.86L2413.99 201.007H2459.91L2353.54 442.791H2307.62Z" fill="#1A91FF"/>
</svg>
